<svg xmlns="http://www.w3.org/2000/svg" viewBox="0 30 125 128" width="40" height="40">
  <!-- Official Stellenbosch University "S" mark, extracted from su.ac.za -->
  <!-- Gold paths: the stylised "S" crest -->
  <path fill-rule="evenodd" fill="#caa258" d="m110.5 106.9c0 37.8-43.5 49.8-48.7 50-3.6-0.7-7.5-1.7-11-3l0.2-1.3c13.2-2 25-17.8 25-32.6 0-31.1-43.8-44.9-43.8-87.2 0-13 4.7-20.6 6.4-22.9h-15.1c-2.3 2.5-7.6 10-7.6 24.6 0 35.2 22.1 50.5 34.7 67.5 17 22.8 2.7 37.3-10.7 37.3-13.4 0-21.1-9.1-26.6-21.4-5.5-12.5-5.8-26-5.8-35.7v-72.3h-3.7v-8.2q0 0 0.1 0 0.1 0 0.1 0c0.1 0 0.6 0 0.6 0 3.3 0 18.1 0 73.5 0l0.4 0.7c-3.6 3.4-10 10.8-10 25.6 0 32.5 42 41.1 42 78.9zm-94-23.6c0 25.2 8.3 47.5 23.5 47.5 6.6 0 10.2-6.6 6.3-16.1-5.6-13.3-22.6-27.4-29.3-43.3-0.1 0-0.4 0.2-0.5 0.2 0 0 0 11.7 0 11.7zm57.7 61.9c9.9-3.5 26.1-17.7 26.1-36.9 0-32.8-41.7-43.4-41.7-79.3 0-9.8 2.8-16.5 4.3-19.1h-14.4c-1.7 2.3-6.6 9.8-6.6 21.6 0 39.3 44.7 52.7 44.7 88.3 0 12-6.9 20.5-12.7 25 0.1 0.2 0.2 0.3 0.3 0.4z"/>
  <path fill="#caa258" d="m4.1 1.7q-0.1 0-0.2 0 0.1 0 0.1 0 0.1 0 0.1 0z"/>
  <path fill-rule="evenodd" fill="#caa258" d="m119.9 1.7c0-0.3 0 8 0 8.2h-3.8v62.2l-1 0.3c-1.5-2.6-5.1-7.3-12.4-14.7-9.6-9.5-18.3-19.4-18.3-32.6 0-10.9 8.2-17.6 9.4-18.5 4.7-3.6 9.9-4.9 16.4-4.9zm-12.6 49v-40.5c-0.6 0-0.3 0-0.9 0-1.5 0-2.8 0-4.2 0.5-4.7 1.7-9.2 7.6-9.2 14.3 0 11.4 9.9 20.6 13.9 25.9 0.1 0 0.3-0.2 0.4-0.2z"/>
</svg>